<mxfile host="app.diagrams.net" modified="2023-04-07T07:16:21.197Z" agent="Mozilla/5.0 (Macintosh; Intel Mac OS X 10_15_7) AppleWebKit/537.36 (KHTML, like Gecko) Chrome/111.0.0.0 Safari/537.36" etag="1S3HQZjf03ZBPG4LaKbt" version="21.1.4" type="github">
  <diagram name="第 1 页" id="cw4zliTVJwminjke96G5">
    <mxGraphModel dx="1288" dy="549" grid="1" gridSize="10" guides="1" tooltips="1" connect="1" arrows="1" fold="1" page="1" pageScale="1" pageWidth="827" pageHeight="1169" math="0" shadow="0">
      <root>
        <mxCell id="0" />
        <mxCell id="1" parent="0" />
        <mxCell id="ousXHYL0wHkHq7cQ57ZT-17" style="edgeStyle=orthogonalEdgeStyle;rounded=0;orthogonalLoop=1;jettySize=auto;html=1;entryX=0.189;entryY=0;entryDx=0;entryDy=0;entryPerimeter=0;" edge="1" parent="1" source="ousXHYL0wHkHq7cQ57ZT-1" target="ousXHYL0wHkHq7cQ57ZT-4">
          <mxGeometry relative="1" as="geometry" />
        </mxCell>
        <mxCell id="ousXHYL0wHkHq7cQ57ZT-1" value="原始数据" style="rounded=1;whiteSpace=wrap;html=1;" vertex="1" parent="1">
          <mxGeometry x="150" y="140" width="120" height="60" as="geometry" />
        </mxCell>
        <mxCell id="ousXHYL0wHkHq7cQ57ZT-4" value="rules engine" style="rounded=0;whiteSpace=wrap;html=1;" vertex="1" parent="1">
          <mxGeometry x="70" y="250" width="740" height="60" as="geometry" />
        </mxCell>
        <mxCell id="ousXHYL0wHkHq7cQ57ZT-12" style="edgeStyle=orthogonalEdgeStyle;rounded=0;orthogonalLoop=1;jettySize=auto;html=1;" edge="1" parent="1" source="ousXHYL0wHkHq7cQ57ZT-10" target="ousXHYL0wHkHq7cQ57ZT-11">
          <mxGeometry relative="1" as="geometry" />
        </mxCell>
        <mxCell id="ousXHYL0wHkHq7cQ57ZT-10" value="专病数据集" style="rounded=1;whiteSpace=wrap;html=1;" vertex="1" parent="1">
          <mxGeometry x="150" y="390" width="140" height="60" as="geometry" />
        </mxCell>
        <mxCell id="ousXHYL0wHkHq7cQ57ZT-13" style="edgeStyle=orthogonalEdgeStyle;rounded=0;orthogonalLoop=1;jettySize=auto;html=1;" edge="1" parent="1" source="ousXHYL0wHkHq7cQ57ZT-11">
          <mxGeometry relative="1" as="geometry">
            <mxPoint x="641" y="310" as="targetPoint" />
          </mxGeometry>
        </mxCell>
        <mxCell id="ousXHYL0wHkHq7cQ57ZT-11" value="引擎驱动表" style="rounded=1;whiteSpace=wrap;html=1;" vertex="1" parent="1">
          <mxGeometry x="580" y="390" width="120" height="60" as="geometry" />
        </mxCell>
        <mxCell id="ousXHYL0wHkHq7cQ57ZT-15" value="" style="endArrow=classic;html=1;rounded=0;exitX=0.769;exitY=0.004;exitDx=0;exitDy=0;exitPerimeter=0;entryX=0.5;entryY=1;entryDx=0;entryDy=0;" edge="1" parent="1" source="ousXHYL0wHkHq7cQ57ZT-4">
          <mxGeometry width="50" height="50" relative="1" as="geometry">
            <mxPoint x="610" y="240" as="sourcePoint" />
            <mxPoint x="640" y="200" as="targetPoint" />
          </mxGeometry>
        </mxCell>
        <mxCell id="ousXHYL0wHkHq7cQ57ZT-18" value="" style="endArrow=classic;html=1;rounded=0;entryX=0.431;entryY=-0.035;entryDx=0;entryDy=0;entryPerimeter=0;exitX=0.188;exitY=1.004;exitDx=0;exitDy=0;exitPerimeter=0;" edge="1" parent="1" source="ousXHYL0wHkHq7cQ57ZT-4" target="ousXHYL0wHkHq7cQ57ZT-10">
          <mxGeometry width="50" height="50" relative="1" as="geometry">
            <mxPoint x="200" y="370" as="sourcePoint" />
            <mxPoint x="250" y="320" as="targetPoint" />
          </mxGeometry>
        </mxCell>
        <mxCell id="ousXHYL0wHkHq7cQ57ZT-19" value="任务中心" style="rounded=1;whiteSpace=wrap;html=1;" vertex="1" parent="1">
          <mxGeometry x="580" y="140" width="120" height="60" as="geometry" />
        </mxCell>
      </root>
    </mxGraphModel>
  </diagram>
</mxfile>
